<?xml version="1.0" encoding="UTF-8"?>
<svg xmlns="http://www.w3.org/2000/svg" xmlns:serif="http://www.serif.com/" version="1.1" viewBox="0 0 2592 2592">
  <defs>
    <style>
      .cls-1 {
        fill: #fff;
      }

      .cls-1, .cls-2, .cls-3, .cls-4 {
        fill-rule: evenodd;
      }

      .cls-3 {
        fill: #ff004f;
      }

      .cls-4 {
        fill: #00f7ef;
      }
    </style>
  </defs>
  <!-- Generator: Adobe Illustrator 28.7.1, SVG Export Plug-In . SVG Version: 1.2.0 Build 142)  -->
  <g>
    <g id="Layer_1">
      <g id="whie_backdrop">
        <path class="cls-1" d="M1284.1,2592H316.7c-174.8,0-316.7-141.9-316.7-316.7V316.7C0,141.9,141.9,0,316.7,0h1958.6c174.8,0,316.7,141.9,316.7,316.7v1958.6c0,174.8-141.9,316.7-316.7,316.7h-991.2Z"/>
      </g>
      <g>
        <path class="cls-4" d="M550.9,2137.2c-454.6-394.5-160.6-1272.7,538.3-1162.2v81.3c-590.2-27.5-850,676.6-538.3,1080.9ZM1825.7,613.7c71.8,57.4,170.8,99.7,307.4,107.8v79.7c-151.1-27.9-246.8-103-307.4-187.5ZM1636.1,194.2c-.1,29.4,3.7,61,8.5,89.8h-278.6v1387.2c0,63.9-6.6,120.9-19.7,170.8-113.5,250.1-434.7,217.4-523.5,45.8,132.2,82.7,349.5,60.8,438.6-135.6,13-49.8,19.6-106.9,19.6-170.8V194.2h355Z"/>
        <path class="cls-2" d="M1721.1,284v1.8c.1,32.1,9.5,496.5,496.9,525.5,0,432.1.2,0,.2,358.8-36.6,2.2-320.8-18.4-497.6-176.1l-.5,698.6c4.4,316.3-171.7,626.5-501.4,689-92.4,17.5-175.5,19.5-315.1-11-804.2-240.6-537-1433.4,270.5-1305.7,0,385.1.2-.1.2,385.1-333.6-49.1-445.2,228.4-356.5,427.1,80.7,180.9,412.8,220.1,528.7-35.1,13.1-49.9,19.7-106.9,19.7-170.8V284h355Z"/>
        <path class="cls-3" d="M1089.2,1056.4c27.5,1.2,55.9,3.9,84.8,8.5,0,385.1.2-.1.2,385.1-333.6-49.1-445.2,228.4-356.5,427.1,1.6,3.6,3.4,7.2,5.2,10.7-39.7-24.8-71.6-58.9-90.1-100.6-88.5-198.7,22.9-476.2,356.5-427.1,0-352.9-.1-59.2-.1-303.7ZM2133,801.2c26.6,4.9,54.9,8.4,84.9,10.1,0,432.1.2,0,.2,358.8-36.6,2.2-320.8-18.4-497.6-176.1l-.5,698.6c4.4,316.3-171.7,626.5-501.4,689-92.4,17.5-175.5,19.5-315.1-11-157.2-47-273.2-130.5-352.6-233.4,70.7,61.4,159.5,111.2,267.8,143.6,139.4,30.4,222.6,28.4,315,10.9,329.7-62.5,505.7-372.7,501.5-688.9l.4-698.7c176.8,157.7,461,178.4,497.8,176.1,0-333.2-.3,15.5-.3-279.1ZM1721.1,284v1.8c0,18.9,3.4,186.6,104.6,327.9-122-97.6-165.5-238.6-181-329.7h76.4Z"/>
      </g>
    </g>
  </g>
</svg>